HIERARCHY
ROOT Root
{
  OFFSET 0.0 0.0 0.0
  CHANNELS 6 Xposition Yposition Zposition Zrotation Yrotation Xrotation
  JOINT Hips
  {
    OFFSET 0.0 100.0 0.0
    CHANNELS 6 Xposition Yposition Zposition Zrotation Yrotation Xrotation
    JOINT Spine1
    {
      OFFSET 5.003913 -0.037094 -0.013727
      CHANNELS 3 Zrotation Yrotation Xrotation
      JOINT Spine2
      {
        OFFSET 7.125363 -1e-06 0.0
        CHANNELS 3 Zrotation Yrotation Xrotation
        JOINT Chest
        {
          OFFSET 7.594027 1e-06 0.0
          CHANNELS 3 Zrotation Yrotation Xrotation
          JOINT Neck1
          {
            OFFSET 26.313086 -0.460272 -0.181672
            CHANNELS 3 Zrotation Yrotation Xrotation
            JOINT Neck2
            {
              OFFSET 8.045911 0.0 0.0
              CHANNELS 3 Zrotation Yrotation Xrotation
              JOINT Head
              {
                OFFSET 6.432774 0.0 0.0
                CHANNELS 3 Zrotation Yrotation Xrotation
                JOINT HeadEnd
                {
                  OFFSET 16.169773 0.06451 0.00362
                  CHANNELS 3 Zrotation Yrotation Xrotation
                }
                JOINT Jaw
                {
                  OFFSET 0.108741 3.12938 0.002639
                  CHANNELS 3 Zrotation Yrotation Xrotation
                }
                JOINT LeftEye
                {
                  OFFSET 4.45173 8.166359 3.206392
                  CHANNELS 3 Zrotation Yrotation Xrotation
                }
                JOINT RightEye
                {
                  OFFSET 4.436895 8.135758 -3.222429
                  CHANNELS 3 Zrotation Yrotation Xrotation
                }
              }
            }
          }
          JOINT LeftShoulder
          {
            OFFSET 23.218927 5.195579 1.621656
            CHANNELS 3 Zrotation Yrotation Xrotation
            JOINT LeftArm
            {
              OFFSET 15.902118 2e-06 -2e-06
              CHANNELS 3 Zrotation Yrotation Xrotation
              JOINT LeftForeArm
              {
                OFFSET 28.739307 0.0 -1e-06
                CHANNELS 3 Zrotation Yrotation Xrotation
                JOINT LeftHand
                {
                  OFFSET 27.093981 -4e-06 0.0
                  CHANNELS 3 Zrotation Yrotation Xrotation
                  JOINT LeftHandThumb1
                  {
                    OFFSET 2.276781 3.380274 0.83384
                    CHANNELS 3 Zrotation Yrotation Xrotation
                    JOINT LeftHandThumb2
                    {
                      OFFSET 4.705309 -1e-06 -1e-06
                      CHANNELS 3 Zrotation Yrotation Xrotation
                      JOINT LeftHandThumb3
                      {
                        OFFSET 2.798515 0.0 3e-06
                        CHANNELS 3 Zrotation Yrotation Xrotation
                        JOINT LeftHandThumbEnd
                        {
                          OFFSET 3.180793 4e-06 -4e-06
                          CHANNELS 3 Zrotation Yrotation Xrotation
                        }
                      }
                    }
                  }
                  JOINT LeftHandIndex1
                  {
                    OFFSET 3.247786 2.352677 0.137192
                    CHANNELS 3 Zrotation Yrotation Xrotation
                    JOINT LeftHandIndex2
                    {
                      OFFSET 6.367095 1e-06 0.0
                      CHANNELS 3 Zrotation Yrotation Xrotation
                      JOINT LeftHandIndex3
                      {
                        OFFSET 3.662364 0.0 0.0
                        CHANNELS 3 Zrotation Yrotation Xrotation
                        JOINT LeftHandIndex4
                        {
                          OFFSET 2.329242 4e-06 -4e-06
                          CHANNELS 3 Zrotation Yrotation Xrotation
                          JOINT LeftHandIndexEnd
                          {
                            OFFSET 2.767823 1e-06 0.0
                            CHANNELS 3 Zrotation Yrotation Xrotation
                          }
                        }
                      }
                    }
                  }
                  JOINT LeftHandMiddle1
                  {
                    OFFSET 3.163612 0.945023 -0.406112
                    CHANNELS 3 Zrotation Yrotation Xrotation
                    JOINT LeftHandMiddle2
                    {
                      OFFSET 6.276789 3e-06 0.0
                      CHANNELS 3 Zrotation Yrotation Xrotation
                      JOINT LeftHandMiddle3
                      {
                        OFFSET 4.35652 -1e-06 4e-06
                        CHANNELS 3 Zrotation Yrotation Xrotation
                        JOINT LeftHandMiddle4
                        {
                          OFFSET 2.996877 0.0 8e-06
                          CHANNELS 3 Zrotation Yrotation Xrotation
                          JOINT LeftHandMiddleEnd
                          {
                            OFFSET 2.323256 3e-06 -4e-06
                            CHANNELS 3 Zrotation Yrotation Xrotation
                          }
                        }
                      }
                    }
                  }
                  JOINT LeftHandRing1
                  {
                    OFFSET 2.882606 -0.309162 0.107445
                    CHANNELS 3 Zrotation Yrotation Xrotation
                    JOINT LeftHandRing2
                    {
                      OFFSET 6.033198 0.0 4e-06
                      CHANNELS 3 Zrotation Yrotation Xrotation
                      JOINT LeftHandRing3
                      {
                        OFFSET 4.350578 3e-06 0.0
                        CHANNELS 3 Zrotation Yrotation Xrotation
                        JOINT LeftHandRing4
                        {
                          OFFSET 2.651321 2e-06 -7e-06
                          CHANNELS 3 Zrotation Yrotation Xrotation
                          JOINT LeftHandRingEnd
                          {
                            OFFSET 1.937663 1e-06 -4e-06
                            CHANNELS 3 Zrotation Yrotation Xrotation
                          }
                        }
                      }
                    }
                  }
                  JOINT LeftHandPinky1
                  {
                    OFFSET 2.865315 -1.525436 0.575687
                    CHANNELS 3 Zrotation Yrotation Xrotation
                    JOINT LeftHandPinky2
                    {
                      OFFSET 5.54936 1e-06 -8e-06
                      CHANNELS 3 Zrotation Yrotation Xrotation
                      JOINT LeftHandPinky3
                      {
                        OFFSET 3.070974 0.0 -4e-06
                        CHANNELS 3 Zrotation Yrotation Xrotation
                        JOINT LeftHandPinky4
                        {
                          OFFSET 1.549672 1e-06 0.0
                          CHANNELS 3 Zrotation Yrotation Xrotation
                          JOINT LeftHandPinkyEnd
                          {
                            OFFSET 1.952123 0.0 0.0
                            CHANNELS 3 Zrotation Yrotation Xrotation
                          }
                        }
                      }
                    }
                  }
                }
              }
            }
          }
          JOINT RightShoulder
          {
            OFFSET 23.161716 5.296122 -1.380114
            CHANNELS 3 Zrotation Yrotation Xrotation
            JOINT RightArm
            {
              OFFSET -16.027195 -2e-06 1.1e-05
              CHANNELS 3 Zrotation Yrotation Xrotation
              JOINT RightForeArm
              {
                OFFSET -28.736639 4e-06 2e-06
                CHANNELS 3 Zrotation Yrotation Xrotation
                JOINT RightHand
                {
                  OFFSET -27.133619 6e-06 0.0
                  CHANNELS 3 Zrotation Yrotation Xrotation
                  JOINT RightHandThumb1
                  {
                    OFFSET -2.274328 -3.351035 -0.83067
                    CHANNELS 3 Zrotation Yrotation Xrotation
                    JOINT RightHandThumb2
                    {
                      OFFSET -4.703594 -3e-06 2e-06
                      CHANNELS 3 Zrotation Yrotation Xrotation
                      JOINT RightHandThumb3
                      {
                        OFFSET -2.794935 -4e-06 -3e-06
                        CHANNELS 3 Zrotation Yrotation Xrotation
                        JOINT RightHandThumbEnd
                        {
                          OFFSET -3.183852 4e-06 1e-06
                          CHANNELS 3 Zrotation Yrotation Xrotation
                        }
                      }
                    }
                  }
                  JOINT RightHandIndex1
                  {
                    OFFSET -3.253496 -2.33755 -0.127667
                    CHANNELS 3 Zrotation Yrotation Xrotation
                    JOINT RightHandIndex2
                    {
                      OFFSET -6.344434 0.0 0.0
                      CHANNELS 3 Zrotation Yrotation Xrotation
                      JOINT RightHandIndex3
                      {
                        OFFSET -3.654871 0.0 -8e-06
                        CHANNELS 3 Zrotation Yrotation Xrotation
                        JOINT RightHandIndex4
                        {
                          OFFSET -2.327586 -1e-06 0.0
                          CHANNELS 3 Zrotation Yrotation Xrotation
                          JOINT RightHandIndexEnd
                          {
                            OFFSET -2.770001 3e-06 8e-06
                            CHANNELS 3 Zrotation Yrotation Xrotation
                          }
                        }
                      }
                    }
                  }
                  JOINT RightHandMiddle1
                  {
                    OFFSET -3.168223 -0.944764 0.411762
                    CHANNELS 3 Zrotation Yrotation Xrotation
                    JOINT RightHandMiddle2
                    {
                      OFFSET -6.266691 -1e-06 -4e-06
                      CHANNELS 3 Zrotation Yrotation Xrotation
                      JOINT RightHandMiddle3
                      {
                        OFFSET -4.348901 0.0 0.0
                        CHANNELS 3 Zrotation Yrotation Xrotation
                        JOINT RightHandMiddle4
                        {
                          OFFSET -3.00024 2e-06 -4e-06
                          CHANNELS 3 Zrotation Yrotation Xrotation
                          JOINT RightHandMiddleEnd
                          {
                            OFFSET -2.321477 -4e-06 -4e-06
                            CHANNELS 3 Zrotation Yrotation Xrotation
                          }
                        }
                      }
                    }
                  }
                  JOINT RightHandRing1
                  {
                    OFFSET -2.885654 0.293261 -0.119232
                    CHANNELS 3 Zrotation Yrotation Xrotation
                    JOINT RightHandRing2
                    {
                      OFFSET -6.032835 -1e-06 -4e-06
                      CHANNELS 3 Zrotation Yrotation Xrotation
                      JOINT RightHandRing3
                      {
                        OFFSET -4.33881 0.0 -4e-06
                        CHANNELS 3 Zrotation Yrotation Xrotation
                        JOINT RightHandRing4
                        {
                          OFFSET -2.654903 -4e-06 -4e-06
                          CHANNELS 3 Zrotation Yrotation Xrotation
                          JOINT RightHandRingEnd
                          {
                            OFFSET -1.935122 0.0 4e-06
                            CHANNELS 3 Zrotation Yrotation Xrotation
                          }
                        }
                      }
                    }
                  }
                  JOINT RightHandPinky1
                  {
                    OFFSET -2.866241 1.503904 -0.60527
                    CHANNELS 3 Zrotation Yrotation Xrotation
                    JOINT RightHandPinky2
                    {
                      OFFSET -5.553177 -2e-06 0.0
                      CHANNELS 3 Zrotation Yrotation Xrotation
                      JOINT RightHandPinky3
                      {
                        OFFSET -3.062664 -1e-06 -4e-06
                        CHANNELS 3 Zrotation Yrotation Xrotation
                        JOINT RightHandPinky4
                        {
                          OFFSET -1.546529 2e-06 4e-06
                          CHANNELS 3 Zrotation Yrotation Xrotation
                          JOINT RightHandPinkyEnd
                          {
                            OFFSET -1.952341 0.0 -4e-06
                            CHANNELS 3 Zrotation Yrotation Xrotation
                          }
                        }
                      }
                    }
                  }
                }
              }
            }
          }
        }
      }
    }
    JOINT LeftLeg
    {
      OFFSET -8.443107 2.567604 10.043214
      CHANNELS 3 Zrotation Yrotation Xrotation
      JOINT LeftShin
      {
        OFFSET 43.229198 1e-06 -1e-06
        CHANNELS 3 Zrotation Yrotation Xrotation
        JOINT LeftFoot
        {
          OFFSET 42.298611 1e-06 1e-06
          CHANNELS 3 Zrotation Yrotation Xrotation
          JOINT LeftToeBase
          {
            OFFSET 14.165858 1e-06 0.0
            CHANNELS 3 Zrotation Yrotation Xrotation
            JOINT LeftToeEnd
            {
              OFFSET 6.7141 -0.234461 0.0
              CHANNELS 3 Zrotation Yrotation Xrotation
            }
          }
        }
      }
    }
    JOINT RightLeg
    {
      OFFSET -8.303923 2.592729 -10.047278
      CHANNELS 3 Zrotation Yrotation Xrotation
      JOINT RightShin
      {
        OFFSET -43.369682 0.0 1e-06
        CHANNELS 3 Zrotation Yrotation Xrotation
        JOINT RightFoot
        {
          OFFSET -42.260784 4e-06 2e-06
          CHANNELS 3 Zrotation Yrotation Xrotation
          JOINT RightToeBase
          {
            OFFSET -14.222245 -2e-06 -1e-06
            CHANNELS 3 Zrotation Yrotation Xrotation
            JOINT RightToeEnd
            {
              OFFSET -6.660062 0.232574 -2e-06
              CHANNELS 3 Zrotation Yrotation Xrotation
            }
          }
        }
      }
    }
  }
}
MOTION
Frames: 4
Frame Time: 0.03333333333333333
0.0 0.0 0.0 0.0 -0.0 0.0 1.519727 99.340607 5.912447 92.383896 0.78038 90.167755 -4.378237 0.094781 0.080292 -12.281803 -0.479154 0.452621 18.700668 -1.765702 -1.637137 20.339237 -1.339782 2.749922 -2.435037 -0.668487 1.531965 -23.586172 -1.788852 2.583752 6e-06 0.0 0.0 -0.009405 0.033489 -0.001095 0.043104 0.150527 0.02428 0.099015 -0.091143 -0.017952 -146.411697 -69.337112 163.962631 29.026012 -48.80658 10.075589 29.288858 0.043777 -0.04121 2.81534 2.842813 7.6253 17.636625 -26.322729 52.41119 -19.46666 -14.395598 29.410385 -1e-06 -8.774821 -2e-06 15.664713 -18.156134 6.209259 -0.609776 -1.795654 -3.889326 -4.807087 -11.04681 -2.937852 5e-06 -20.976017 -4e-06 -5.019969 -25.03356 -4.031879 5e-06 2e-06 -1e-06 -10.634535 -5.686972 -3.565588 10.573275 -17.922951 -3.113897 2e-06 -13.82121 -2e-06 -0.501779 -31.181507 -4.027012 -11.173304 -59.072468 7.111869 -13.982713 -7.150198 -2.875041 13.772727 -8.401493 -3.21824 0.347733 -34.211555 0.771651 -0.963031 -17.73337 2.621021 0.0 -1e-06 -0.0 -17.34642 -20.095217 -4.201779 21.757557 -1.638375 3.866428 2e-06 -6.338824 -0.0 -1.697589 -22.591747 -6.194009 -1e-06 -4e-06 -2e-06 19.145006 -66.917305 179.507416 31.737659 -45.359493 11.340333 26.309935 -0.160613 0.05193 -2.037843 2.792369 13.135975 22.182121 -20.375891 49.933311 -16.701815 -16.743528 28.47653 -3e-06 -12.690603 -3e-06 16.279541 -17.593826 2.566715 -0.10592 -1.513857 -4.275882 -5.039042 -5.612872 -2.953556 3e-06 -11.020525 -1e-06 -6.1113 -15.895334 -3.840471 1e-06 0.0 -2e-06 -10.283371 -5.680288 -4.341838 11.028296 -11.302406 -2.372634 -1.384268 -14.238581 -6.320119 -0.625437 -26.924194 -3.827603 -4.274164 -49.898777 -3.865008 -13.708527 -7.363478 -3.72094 18.141153 -14.052739 -3.242676 7e-06 -18.78727 -2e-06 -0.429711 -8.456043 2.555505 0.0 -2e-06 -0.0 -15.923536 -20.094484 -5.473582 30.419218 -7.190826 1.735928 2e-06 -8.162927 -2e-06 -1.861901 -22.861471 -6.167943 -2e-06 -2e-06 0.0 -175.770294 -3.161484 -5.400873 7.156849 -0.059608 -0.032015 -79.045067 -3.206215 -10.277952 -6.687665 1.577206 2.100752 -0.999999 -0.0 -0.0 1.111247 -10.653144 -7.329549 14.342686 0.016197 0.046081 -83.029663 3.943807 -8.553069 -6.722165 0.639071 1.631769 -1.000002 -0.0 0.0 
0.0 0.0 0.0 0.0 -0.0 0.0 1.631937 99.366066 6.030046 92.406075 0.783435 90.083382 -4.381663 0.068543 0.081054 -12.256944 -0.463665 0.498 18.666075 -1.734039 -1.678842 20.324968 -1.318859 2.771071 -2.435407 -0.637877 1.523109 -23.593805 -1.779671 2.597492 6e-06 0.0 -0.0 -0.0172 0.029985 0.013923 0.027931 0.150557 0.039237 0.083579 -0.098205 -0.00367 -146.363556 -69.386192 163.928009 29.023445 -48.875881 9.939691 29.261709 -0.029158 -0.082132 2.79737 2.589245 7.854812 17.636633 -26.322737 52.411205 -19.466658 -14.395594 29.410393 -0.0 -8.774821 -2e-06 15.690982 -18.118578 6.183325 -0.609775 -1.795654 -3.889328 -4.807089 -11.046811 -2.937849 3e-06 -20.976021 -1e-06 -5.019972 -25.03356 -4.031878 7e-06 -0.0 -1e-06 -10.634535 -5.686971 -3.565588 10.573274 -17.922955 -3.113897 2e-06 -13.821211 -3e-06 -0.501775 -31.181511 -4.027017 -11.208735 -59.099174 7.237781 -13.982714 -7.150197 -2.875044 13.772728 -8.401492 -3.218239 0.347735 -34.211555 0.771653 -0.963029 -17.733366 2.621021 0.0 -1e-06 -0.0 -17.346418 -20.095221 -4.201785 21.757557 -1.638376 3.866428 1e-06 -6.338824 0.0 -1.697591 -22.591751 -6.194006 -1e-06 -3e-06 -0.0 19.225405 -66.943016 179.49234 31.553043 -45.416183 11.255654 26.260262 -0.17528 0.023937 -1.982147 2.760561 13.154068 22.182116 -20.3759 49.933323 -16.701815 -16.74353 28.476536 -2e-06 -12.690602 -3e-06 16.294626 -17.586668 2.552164 -0.10592 -1.513855 -4.275882 -5.039042 -5.612872 -2.953556 4e-06 -11.020525 -1e-06 -6.111299 -15.895334 -3.84047 0.0 2e-06 1e-06 -10.283373 -5.68029 -4.341838 11.028294 -11.302406 -2.372632 -1.38427 -14.238581 -6.32012 -0.625442 -26.924187 -3.8276 -4.280584 -50.026127 -3.826313 -13.708527 -7.363478 -3.720938 18.141153 -14.052739 -3.242678 4e-06 -18.78727 -0.0 -0.429711 -8.456045 2.555506 0.0 -2e-06 -0.0 -15.923538 -20.094486 -5.473585 30.419218 -7.190826 1.735927 3e-06 -8.162927 -3e-06 -1.861904 -22.861473 -6.167943 -0.0 -2e-06 -1e-06 -175.4366 -3.046035 -5.436866 6.587793 -0.04708 0.029373 -78.801224 -3.27483 -10.31655 -6.746483 1.598189 2.106831 -0.999999 -1e-06 -0.0 1.454702 -10.717045 -7.33524 13.760518 0.014629 0.051035 -82.805779 3.926921 -8.576615 -6.838304 0.60923 1.624213 -1.000002 -0.0 -0.0 
0.0 0.0 0.0 0.0 -0.0 0.0 1.730435 99.366219 6.134646 92.428299 0.798 89.988914 -4.389798 0.047011 0.081156 -12.251736 -0.463587 0.513158 18.707487 -1.683347 -1.680495 20.285337 -1.325526 2.807997 -2.47763 -0.59888 1.487548 -23.558115 -1.77802 2.639311 6e-06 0.0 -0.0 -0.024848 0.029028 0.009305 0.005905 0.148027 0.038276 0.064118 -0.097775 -0.012825 -146.349747 -69.407234 163.956665 29.010109 -48.895069 9.844909 29.289982 -0.083374 -0.12175 2.709597 2.379825 7.970803 17.636633 -26.322725 52.411179 -19.466661 -14.395597 29.410385 -1e-06 -8.774821 -2e-06 15.728784 -18.134483 6.162974 -0.609776 -1.795654 -3.889328 -4.807087 -11.04681 -2.937848 5e-06 -20.976015 -3e-06 -5.019968 -25.033556 -4.03188 5e-06 1e-06 0.0 -10.634533 -5.68697 -3.565586 10.573275 -17.922951 -3.1139 3e-06 -13.821209 -3e-06 -0.501778 -31.181505 -4.027012 -11.280108 -59.124454 7.283048 -13.982714 -7.150198 -2.87504 13.772729 -8.401491 -3.218241 0.347738 -34.211555 0.771653 -0.963029 -17.73337 2.62102 0.0 -1e-06 -1e-06 -17.346416 -20.095217 -4.201784 21.757557 -1.638375 3.866427 2e-06 -6.338822 -0.0 -1.697589 -22.59174 -6.194005 0.0 -3e-06 -4e-06 19.223541 -66.940475 179.534714 31.351097 -45.411831 11.192484 26.220701 -0.199018 -0.010152 -1.973655 2.733479 13.232718 22.182117 -20.375896 49.933327 -16.701817 -16.74353 28.476532 -3e-06 -12.690602 -3e-06 16.286346 -17.545322 2.558662 -0.105919 -1.513856 -4.275882 -5.039041 -5.612872 -2.953556 4e-06 -11.020525 -0.0 -6.1113 -15.895334 -3.840471 0.0 -0.0 1e-06 -10.283371 -5.68029 -4.341841 11.028296 -11.302407 -2.372634 -1.384269 -14.238585 -6.320123 -0.625437 -26.924196 -3.827604 -4.285385 -50.056911 -3.808197 -13.708526 -7.363478 -3.720938 18.141151 -14.05274 -3.242676 6e-06 -18.787273 -3e-06 -0.429713 -8.456047 2.555503 1e-06 -1e-06 0.0 -15.923536 -20.094486 -5.473583 30.419222 -7.190828 1.735927 2e-06 -8.162927 -3e-06 -1.8619 -22.861473 -6.167946 -1e-06 -3e-06 -1e-06 -175.277878 -2.961738 -5.476943 6.416901 -0.043367 0.066564 -78.773994 -3.327198 -10.326272 -6.734848 1.603769 2.11268 -1.0 -0.0 0.0 1.645773 -10.801641 -7.330462 13.492264 0.02275 0.047154 -82.726929 3.944834 -8.652479 -6.84906 0.593852 1.620021 -1.000002 0.0 0.0 
0.0 0.0 0.0 0.0 -0.0 0.0 1.81752 99.357925 6.196816 92.446404 0.833321 89.881233 -4.385227 0.01704 0.081831 -12.257794 -0.464173 0.511816 18.766115 -1.629642 -1.649506 20.260317 -1.338825 2.831925 -2.520483 -0.579975 1.491733 -23.540548 -1.756903 2.661122 6e-06 0.0 -0.0 -0.029579 0.028082 0.005196 -0.013654 0.143359 0.038017 0.046376 -0.095126 -0.021459 -146.292435 -69.395554 163.946335 28.99762 -48.881573 9.890476 29.311447 -0.096329 -0.134828 2.632275 2.309972 8.051776 17.636625 -26.322737 52.411201 -19.466665 -14.395598 29.410395 -1e-06 -8.774822 -2e-06 15.744244 -18.132355 6.157754 -0.609778 -1.795655 -3.889328 -4.807087 -11.046813 -2.937849 6e-06 -20.976021 -2e-06 -5.019969 -25.03356 -4.031881 7e-06 0.0 -1e-06 -10.634533 -5.68697 -3.565587 10.573275 -17.922955 -3.113902 3e-06 -13.82121 -1e-06 -0.501773 -31.181511 -4.027013 -11.315585 -59.146851 7.3013 -13.982714 -7.150198 -2.87504 13.77273 -8.401495 -3.218243 0.347737 -34.211555 0.771652 -0.963027 -17.733374 2.62102 -1e-06 0.0 -0.0 -17.346418 -20.095221 -4.201783 21.757557 -1.638377 3.866427 2e-06 -6.338823 -0.0 -1.697588 -22.591747 -6.194005 -2e-06 -3e-06 -1e-06 19.197142 -66.931084 179.578827 31.168943 -45.403603 11.311874 26.169518 -0.177629 -0.024333 -1.992548 2.655477 13.301551 22.182112 -20.375895 49.933315 -16.701813 -16.743528 28.476526 -3e-06 -12.690598 -3e-06 16.260277 -17.498369 2.577788 -0.10592 -1.513855 -4.275884 -5.03904 -5.61287 -2.953554 4e-06 -11.020523 0.0 -6.111298 -15.89533 -3.840472 0.0 -0.0 -2e-06 -10.283367 -5.680287 -4.341836 11.028293 -11.302405 -2.372634 -1.384269 -14.238579 -6.320119 -0.625439 -26.924189 -3.827602 -4.306853 -50.015953 -3.770007 -13.708522 -7.363476 -3.72094 18.141144 -14.052739 -3.242672 6e-06 -18.78727 -2e-06 -0.429712 -8.456045 2.555505 -0.0 -1e-06 -1e-06 -15.923532 -20.094482 -5.473583 30.41921 -7.190824 1.735925 4e-06 -8.162926 -2e-06 -1.861902 -22.861467 -6.167942 -1e-06 -3e-06 0.0 -175.187881 -2.891922 -5.563874 6.416592 -0.046602 0.084642 -78.824677 -3.384737 -10.327018 -6.713961 1.606749 2.115554 -0.999998 -0.0 -0.0 1.74284 -10.886651 -7.321545 13.395409 0.027096 0.037752 -82.703026 4.008131 -8.73653 -6.839869 0.579646 1.615221 -1.000003 -0.0 0.0 
